<svg width="600" height="400" viewBox="0 0 600 400" fill="none" xmlns="http://www.w3.org/2000/svg">
  <defs>
    <linearGradient id="ecommerceGradient" x1="0%" y1="0%" x2="100%" y2="100%">
      <stop offset="0%" style="stop-color:#3B82F6;stop-opacity:1" />
      <stop offset="100%" style="stop-color:#1E40AF;stop-opacity:1" />
    </linearGradient>
  </defs>
  <rect width="600" height="400" fill="url(#ecommerceGradient)"/>
  <rect x="50" y="50" width="500" height="300" fill="white" opacity="0.9" rx="10"/>
  <rect x="70" y="70" width="460" height="40" fill="#3B82F6" rx="5"/>
  <rect x="70" y="130" width="200" height="20" fill="#E5E7EB" rx="3"/>
  <rect x="70" y="160" width="150" height="20" fill="#E5E7EB" rx="3"/>
  <rect x="70" y="190" width="180" height="20" fill="#E5E7EB" rx="3"/>
  <rect x="300" y="130" width="230" height="80" fill="#F3F4F6" rx="5"/>
  <circle cx="350" cy="170" r="20" fill="#10B981"/>
  <rect x="70" y="230" width="460" height="100" fill="#F9FAFB" rx="5"/>
  <rect x="90" y="250" width="60" height="60" fill="#E5E7EB" rx="5"/>
  <rect x="170" y="250" width="60" height="60" fill="#E5E7EB" rx="5"/>
  <rect x="250" y="250" width="60" height="60" fill="#E5E7EB" rx="5"/>
  <text x="300" y="350" text-anchor="middle" fill="#374151" font-family="Arial, sans-serif" font-size="24" font-weight="bold">E-Commerce Dashboard</text>
</svg>
