<svg width="600" height="400" viewBox="0 0 600 400" fill="none" xmlns="http://www.w3.org/2000/svg">
  <defs>
    <linearGradient id="portfolioGradient" x1="0%" y1="0%" x2="100%" y2="100%">
      <stop offset="0%" style="stop-color:#10B981;stop-opacity:1" />
      <stop offset="100%" style="stop-color:#059669;stop-opacity:1" />
    </linearGradient>
  </defs>
  <rect width="600" height="400" fill="url(#portfolioGradient)"/>
  <rect x="50" y="50" width="500" height="300" fill="white" opacity="0.9" rx="10"/>
  <rect x="70" y="70" width="460" height="40" fill="#10B981" rx="5"/>
  <rect x="70" y="130" width="100" height="60" fill="#F3F4F6" rx="5"/>
  <rect x="180" y="130" width="100" height="60" fill="#F3F4F6" rx="5"/>
  <rect x="290" y="130" width="100" height="60" fill="#F3F4F6" rx="5"/>
  <rect x="400" y="130" width="130" height="60" fill="#F3F4F6" rx="5"/>
  <rect x="70" y="210" width="460" height="80" fill="#F9FAFB" rx="5"/>
  <rect x="90" y="230" width="30" height="40" fill="#10B981" rx="3"/>
  <rect x="130" y="230" width="30" height="40" fill="#10B981" rx="3"/>
  <rect x="170" y="230" width="30" height="40" fill="#10B981" rx="3"/>
  <rect x="210" y="230" width="30" height="40" fill="#10B981" rx="3"/>
  <text x="300" y="350" text-anchor="middle" fill="#374151" font-family="Arial, sans-serif" font-size="24" font-weight="bold">Portfolio Website</text>
</svg>
